<mxfile host="app.diagrams.net" modified="2023-12-11T04:37:02.800Z" agent="Mozilla/5.0 (Windows NT 10.0; Win64; x64) AppleWebKit/537.36 (KHTML, like Gecko) Chrome/119.0.0.0 Safari/537.36" version="22.1.7" etag="_KTA_Gd-SSOOqt9vCc0j" type="github">
  <diagram name="PÃ¡gina-1" id="iir1zNlTXZzejZsVrkxa">
    <mxGraphModel>
      <root>
        <mxCell id="0" />
        <mxCell id="1" parent="0" />
      </root>
    </mxGraphModel>
  </diagram>
</mxfile>
